<svg width="28" height="28" viewBox="0 0 28 28" fill="none" xmlns="http://www.w3.org/2000/svg">
<path d="M10.4955 9.76318H11.4718C11.7083 9.76318 11.899 9.99963 11.899 10.1903V19.7092C11.899 19.9457 11.7083 20.1364 11.4718 20.1364H10.4955C10.2591 20.1364 10.0684 19.8999 10.0684 19.7092V10.1903C10.0684 9.95389 10.259 9.76318 10.4955 9.76318Z" fill="#1A1365"/>
<path d="M5.61465 12.2041H6.59095C6.82739 12.2041 7.0181 12.4405 7.0181 12.6313V19.7094C7.0181 19.9459 6.82741 20.1366 6.59095 20.1366H5.61465C5.3782 20.1366 5.1875 19.9001 5.1875 19.7094V12.6313C5.1875 12.3948 5.37818 12.2041 5.61465 12.2041Z" fill="#1A1365"/>
<path d="M13.4032 23.7974H5.54088C4.16644 23.7974 3.05132 22.6823 3.05132 21.3078V5.54063C3.05132 4.1662 4.16644 3.05107 5.54088 3.05107H21.3081C22.6825 3.05107 23.7976 4.1662 23.7976 5.54063V13.4029C23.7992 13.763 24.0264 14.0833 24.3651 14.2053C24.78 14.3548 25.1812 14.5379 25.5641 14.7545C25.825 14.9086 26.1484 14.9131 26.4138 14.7636C26.6777 14.6157 26.844 14.3381 26.8486 14.0345V5.54068C26.8486 2.48061 24.3681 0 21.3079 0H5.54068C2.48061 0 0 2.48042 0 5.54068V21.3079C0 24.3679 2.48042 26.8486 5.54068 26.8486H14.0345C14.3396 26.8455 14.6187 26.6808 14.7682 26.4168C14.9192 26.1514 14.9162 25.8265 14.7606 25.5641C14.544 25.1812 14.3609 24.78 14.2114 24.3651C14.0894 24.0234 13.7663 23.7974 13.4032 23.7974Z" fill="#1A1365"/>
<path d="M27.7462 25.5882L26.0193 23.8583C27.0993 21.7181 26.4647 19.1096 24.5228 17.7046C22.5794 16.2996 19.9038 16.5132 18.2089 18.208C16.5141 19.9028 16.3006 22.5783 17.7055 24.5219C19.1105 26.4638 21.7189 27.0984 23.8593 26.0183L25.5892 27.7452C25.7509 27.9084 25.9706 27.9999 26.1994 27.9999C26.4282 27.9999 26.6479 27.9084 26.8096 27.7452L27.7584 26.7963C28.0864 26.4592 28.0818 25.9193 27.7462 25.5882ZM22.956 22.9553C22.4328 23.48 21.6457 23.6356 20.9607 23.3534C20.2758 23.0697 19.8304 22.4015 19.8304 21.6617C19.8304 20.9218 20.2758 20.2537 20.9607 19.9699C21.6457 19.6877 22.4328 19.8433 22.956 20.3681C23.67 21.0835 23.67 22.2398 22.956 22.9553Z" fill="#1A1365"/>
<path d="M21.6626 13.7295V7.13953C21.6626 7.02665 21.6183 6.91834 21.5375 6.83749C21.4567 6.75664 21.3483 6.7124 21.2355 6.7124H20.2592C20.1463 6.7124 20.038 6.75664 19.9571 6.83749C19.8763 6.91834 19.832 7.02665 19.832 7.13953V13.9432C20.4316 13.8028 21.0463 13.7311 21.6626 13.7295Z" fill="#1A1365"/>
<path d="M16.0536 16.0544C16.2825 15.8255 16.525 15.6105 16.7798 15.4106V12.6312C16.7798 12.5183 16.7355 12.41 16.6547 12.3292C16.5738 12.2483 16.4655 12.2041 16.3526 12.2041H15.3763C15.2635 12.2041 15.1552 12.2483 15.0743 12.3292C14.9935 12.41 14.9492 12.5183 14.9492 12.6312V17.4366C15.2635 16.9347 15.6342 16.4708 16.0536 16.0544Z" fill="#1A1365"/>
</svg>
