<svg width="28" height="28" viewBox="0 0 28 28" fill="none" xmlns="http://www.w3.org/2000/svg">
<path d="M26.8182 25.5618L25.0724 23.8129C26.1643 21.649 25.5227 19.0118 23.5594 17.5912C21.5945 16.1708 18.8894 16.3867 17.1759 18.1002C15.4623 19.8137 15.2465 22.5187 16.6669 24.4837C18.0874 26.4471 20.7245 27.0887 22.8886 25.9967L24.6375 27.7426C24.801 27.9076 25.0231 28.0001 25.2544 28.0001C25.4858 28.0001 25.7078 27.9076 25.8713 27.7426L26.8306 26.7833C27.1622 26.4424 27.1575 25.8965 26.8182 25.5618ZM21.9753 22.8998C21.4463 23.4304 20.6505 23.5877 19.958 23.3024C19.2655 23.0155 18.8152 22.34 18.8152 21.592C18.8152 20.844 19.2655 20.1684 19.958 19.8816C20.6505 19.5963 21.4463 19.7536 21.9753 20.2841C22.6971 21.0074 22.6971 22.1765 21.9753 22.8998Z" fill="#1A1365"/>
<path d="M14.6213 7.09473H19.0015C19.2406 7.09473 19.4334 7.33378 19.4334 7.52659V8.51365C19.4334 8.7527 19.2406 8.94551 19.0015 8.94551H14.6213C14.3823 8.94551 14.1895 8.70645 14.1895 8.51365V7.52659C14.1895 7.28753 14.3822 7.09473 14.6213 7.09473Z" fill="#1A1365"/>
<path d="M14.6213 10.7959H19.0015C19.2406 10.7959 19.4334 11.035 19.4334 11.2278V12.2148C19.4334 12.4539 19.2406 12.6467 19.0015 12.6467H14.6213C14.3823 12.6467 14.1895 12.4076 14.1895 12.2148V11.2278C14.1895 10.9887 14.3822 10.7959 14.6213 10.7959Z" fill="#1A1365"/>
<path d="M13.3996 18.199C13.7944 17.3523 14.3342 16.5811 14.9974 15.9226C15.2843 15.6296 15.5927 15.3581 15.9228 15.1144H13.1035C12.9015 15.116 12.7071 15.0358 12.5637 14.8939C12.4203 14.7505 12.3401 14.5577 12.3385 14.3556V3.84343C12.3401 3.64139 12.4203 3.44861 12.5637 3.30517C12.7071 3.16328 12.9015 3.08308 13.1035 3.08462H17.3388L21.5922 7.22712V13.6276C22.257 13.7356 22.9124 13.8975 23.5509 14.115C23.8131 14.1983 24.1 14.152 24.3236 13.9885C24.5457 13.8266 24.6768 13.5675 24.6768 13.2914V6.28961C24.6752 6.05672 24.5811 5.83465 24.4146 5.6727L18.8408 0.243855C18.6758 0.0834579 18.4537 -0.00445349 18.2239 0.000173855H13.1034C10.9813 0.00171604 9.25853 1.72137 9.25391 3.84356V14.3558C9.25853 16.4779 10.9813 18.1976 13.1034 18.1991L13.3996 18.199Z" fill="#1A1365"/>
<path d="M12.6467 22.9459C12.6437 23.1619 12.5557 23.3685 12.4015 23.5197C12.2473 23.6708 12.0391 23.7541 11.8232 23.751H3.90813C3.69221 23.7541 3.48401 23.6708 3.32979 23.5197C3.17557 23.3685 3.08766 23.1618 3.08457 22.9459V12.2178C3.08766 12.0018 3.17557 11.7952 3.32979 11.644C3.48402 11.4929 3.69223 11.4096 3.90813 11.4127H5.30546C5.78201 11.4127 6.16914 11.0256 6.16914 10.549V9.19181C6.16914 8.71525 5.78202 8.32813 5.30546 8.32813H3.90813C1.75511 8.32504 0.00615927 10.0647 0 12.2178V22.946C0.00616914 25.099 1.75511 26.8387 3.90813 26.8356H11.8232C12.2828 26.8356 12.7393 26.7539 13.1712 26.595C13.3994 26.504 13.5799 26.3189 13.6631 26.0876C13.748 25.8562 13.7295 25.6002 13.6122 25.3827C13.219 24.6008 12.8966 23.7849 12.6467 22.9459Z" fill="#1A1365"/>
</svg>
