<svg width="88" height="88" viewBox="0 0 88 88" fill="none" xmlns="http://www.w3.org/2000/svg">
<path d="M15.8622 73.1378C0.0459413 57.3216 0.0459413 31.6784 15.8622 15.8622C31.6784 0.0459413 57.3216 0.0459413 73.1378 15.8622C88.9541 31.6784 88.9541 57.3216 73.1378 73.1378C57.3216 88.9541 31.6784 88.9541 15.8622 73.1378Z" fill="url(#paint0_radial_114_1501)" fill-opacity="0.6"/>
<path d="M63.5993 39.7718C63.5923 35.2929 61.9872 30.9616 59.071 27.5615C56.1548 24.1613 52.1197 21.9146 47.6951 21.2238C43.2678 20.5353 38.7417 21.447 34.93 23.7993C31.1161 26.1516 28.2705 29.7869 26.9001 34.0521C25.5301 38.3172 25.7298 42.9303 27.4594 47.0637C29.1913 51.1949 32.3402 54.5715 36.34 56.588V65.3579C36.3353 65.8114 36.5632 66.2368 36.9462 66.4812C37.3293 66.7256 37.811 66.7561 38.2199 66.5611L44.8 63.5203L51.3802 66.5611C51.7891 66.7538 52.2685 66.7256 52.6492 66.4835C53.0322 66.2415 53.2625 65.8185 53.2601 65.3673V56.5878C56.3715 55.0157 58.9846 52.6117 60.8106 49.6437C62.6365 46.6734 63.6023 43.2567 63.6 39.7717L63.5993 39.7718ZM44.7998 53.8717C41.0611 53.8717 37.4749 52.3866 34.8292 49.7429C32.1855 47.0969 30.7003 43.5111 30.7003 39.7722C30.7003 36.0334 32.1855 32.4474 34.8292 29.8016C37.4752 27.1579 41.061 25.6727 44.7998 25.6727C48.5387 25.6727 52.1247 27.1579 54.7705 29.8016C57.4141 32.4476 58.8993 36.0334 58.8993 39.7722C58.8993 43.5157 57.4141 47.1044 54.7705 49.7549C52.1291 52.4033 48.5429 53.8955 44.7998 53.9049V53.8717Z" fill="white"/>
<path d="M52.6908 34.2072C52.4441 33.9534 52.1057 33.8101 51.7508 33.8101C51.396 33.8101 51.0576 33.9534 50.8109 34.2072L43.8596 41.182L38.8918 36.1907C38.6427 35.9392 38.3043 35.7982 37.9518 35.7982C37.5993 35.7982 37.261 35.9392 37.0119 36.1907L35.569 37.657C35.3152 37.9038 35.1719 38.2422 35.1719 38.597C35.1719 38.9519 35.3152 39.2902 35.569 39.537L42.9198 46.8829C43.1689 47.1344 43.5073 47.2754 43.8597 47.2754C44.2122 47.2754 44.5506 47.1344 44.7997 46.8829L54.1525 37.5301C54.404 37.281 54.545 36.9426 54.545 36.5901C54.545 36.2376 54.404 35.8993 54.1525 35.6502L52.6908 34.2072Z" fill="white"/>
<defs>
<radialGradient id="paint0_radial_114_1501" cx="0" cy="0" r="1" gradientUnits="userSpaceOnUse" gradientTransform="translate(44.4998 44.4999) rotate(89.5224) scale(54.6087)">
<stop stop-color="#FFA642" stop-opacity="0.88"/>
<stop offset="0.416" stop-color="#FF8096" stop-opacity="0.37"/>
<stop offset="1" stop-color="#FFE7BA" stop-opacity="0"/>
<stop offset="1" stop-color="#FFE7BA" stop-opacity="0.36"/>
</radialGradient>
</defs>
</svg>
