<svg width="88" height="88" viewBox="0 0 88 88" fill="none" xmlns="http://www.w3.org/2000/svg">
<path d="M5 37.8824C5 20.3526 19.5391 6 37.2965 6C62.4255 6 83 26.1099 83 50.9167C83 68.6358 68.4493 83 50.5 83C25.371 83 5 62.6892 5 37.8824Z" fill="url(#paint0_radial_114_1511)" fill-opacity="0.6"/>
<path fill-rule="evenodd" clip-rule="evenodd" d="M33.5456 51.8169H41.585L41.5846 51.8168C41.8395 51.8199 42.067 51.9817 42.1525 52.2229C42.354 52.8183 42.6258 53.3878 42.9616 53.9206C43.0853 54.1069 43.099 54.3466 42.9937 54.5451C42.8899 54.742 42.6853 54.8672 42.4609 54.8702H33.5452C30.4824 54.8702 28 52.3876 28 49.3251V33.5452C28 30.4824 30.4826 28 33.5452 28H49.3251C52.3878 28 54.8702 30.4826 54.8702 33.5452V42.4609C54.8672 42.6853 54.742 42.8899 54.545 42.9937C54.3465 43.099 54.1069 43.0853 53.9206 42.9616C53.3878 42.6288 52.8183 42.3586 52.2229 42.1586C51.9802 42.0715 51.8168 41.8425 51.8168 41.5845V33.5451C51.8168 32.1695 50.7008 31.0535 49.3252 31.0535H44.9987L43.5728 35.3284H45.13C45.359 35.3284 45.5682 35.4567 45.6735 35.6613C45.7773 35.8658 45.759 36.1101 45.6247 36.2964L40.0615 44.0368C39.9775 44.1498 39.8279 44.1895 39.6982 44.1361C39.5699 44.0811 39.4936 43.9468 39.515 43.8078L40.5195 37.7714H38.1928C38.0142 37.7729 37.8432 37.6966 37.7257 37.5607C37.6081 37.4264 37.5547 37.2462 37.5822 37.0691L38.4982 31.0538H33.5456C32.17 31.0538 31.054 32.1698 31.054 33.5454V49.3253C31.054 50.7008 32.17 51.8169 33.5456 51.8169ZM49.9752 56.9515C46.6466 56.9515 43.7821 54.5995 43.1348 51.3343C42.4852 48.0711 44.2334 44.8036 47.3092 43.5307C50.3849 42.2578 53.9292 43.3367 55.7779 46.103C57.206 48.2416 57.3122 50.9293 56.2012 53.1257L58.6686 55.5932C59.146 56.0706 59.146 56.8422 58.6686 57.3196L57.3128 58.6755C56.8354 59.1529 55.9722 59.0613 55.5863 58.6755L53.1179 56.2071C52.1527 56.6937 51.0774 56.9528 49.9752 56.9515ZM49.9752 47.36C48.7261 47.3578 47.6515 48.2406 47.4073 49.4635C47.1632 50.6864 47.8171 51.9136 48.9703 52.391C50.1234 52.8706 51.4531 52.4673 52.1463 51.4297C52.8417 50.3943 52.7065 49.0101 51.8237 48.1272C51.3332 47.6368 50.6684 47.36 49.9752 47.36Z" fill="white"/>
<defs>
<radialGradient id="paint0_radial_114_1511" cx="0" cy="0" r="1" gradientUnits="userSpaceOnUse" gradientTransform="translate(44 44.5) rotate(123.157) scale(71.307 71.6826)">
<stop stop-color="#FFA642" stop-opacity="0.88"/>
<stop offset="0.416" stop-color="#FF8096" stop-opacity="0.37"/>
<stop offset="1" stop-color="#FFE7BA" stop-opacity="0"/>
<stop offset="1" stop-color="#FFE7BA" stop-opacity="0.36"/>
</radialGradient>
</defs>
</svg>
