<svg width="28" height="28" viewBox="0 0 28 28" fill="none" xmlns="http://www.w3.org/2000/svg">
<path d="M7.34995 0H2.91665C1.3052 0 0 1.3052 0 2.91665V7.34995C0 7.80056 0.36604 8.16661 0.816661 8.16661H2.09999C2.5506 8.16661 2.91665 7.80057 2.91665 7.34995V2.91665H7.34995C7.80056 2.91665 8.16661 2.55061 8.16661 2.09999V0.816661C8.16661 0.366051 7.80057 0 7.34995 0Z" fill="#1A1365"/>
<path d="M7.34995 25.0835H2.91665V20.6502C2.91665 20.1995 2.55061 19.8335 2.09999 19.8335H0.816661C0.366051 19.8335 0 20.1995 0 20.6502V25.0835C0 25.8564 0.307707 26.5987 0.854592 27.1455C1.40145 27.6924 2.14374 28.0001 2.91665 28.0001H7.34995C7.80056 28.0001 8.16661 27.6341 8.16661 27.1834V25.9001C8.16661 25.4495 7.80057 25.0835 7.34995 25.0835Z" fill="#1A1365"/>
<path d="M27.182 19.5415H25.8987C25.448 19.5415 25.082 19.9075 25.082 20.3582V25.083H20.6487C20.1981 25.083 19.832 25.4491 19.832 25.8997V27.183C19.832 27.6336 20.1981 27.9997 20.6487 27.9997H25.082C25.8549 27.9997 26.5972 27.692 27.1441 27.1451C27.6909 26.5982 27.9986 25.8559 27.9986 25.083V20.3582C27.9986 19.9076 27.6326 19.5415 27.182 19.5415Z" fill="#1A1365"/>
<path d="M25.082 0H20.6487C20.1981 0 19.832 0.36604 19.832 0.816661V2.09999C19.832 2.5506 20.1981 2.91665 20.6487 2.91665H25.082V7.34995C25.082 7.80056 25.448 8.16661 25.8987 8.16661H27.182C27.6326 8.16661 27.9986 7.80057 27.9986 7.34995V2.91665C27.9986 2.14374 27.6909 1.40145 27.1441 0.854592C26.5972 0.307737 25.8549 0 25.082 0Z" fill="#1A1365"/>
<path d="M12.1653 15.0206C11.3967 14.9462 10.6647 14.6546 10.0565 14.1806C9.99092 14.1281 9.95008 14.0508 9.94571 13.9677C9.94133 13.8831 9.97342 13.8015 10.0332 13.7431L10.8674 12.9119C10.9695 12.8127 11.1284 12.801 11.2436 12.8856C11.5455 13.0883 11.8897 13.2181 12.2499 13.2648C12.3928 13.2881 12.4963 13.4121 12.4949 13.5564V14.7231C12.4978 14.8091 12.4628 14.8908 12.3986 14.9477C12.3359 15.0045 12.2498 15.0323 12.1653 15.0206Z" fill="#1A1365"/>
<path d="M15.3516 14.729V13.5623C15.3501 13.4179 15.4537 13.294 15.5966 13.2706C15.9524 13.2225 16.2937 13.0927 16.5912 12.8915C16.7064 12.8069 16.8653 12.8186 16.9674 12.9177L17.7899 13.7431C17.8497 13.8015 17.8832 13.8831 17.8789 13.9662C17.8745 14.0508 17.8351 14.1281 17.7695 14.1806C17.1614 14.6546 16.4293 14.9462 15.6608 15.0206C15.5805 15.025 15.5018 14.9973 15.4435 14.9419C15.3851 14.8864 15.3516 14.8092 15.3516 14.729Z" fill="#1A1365"/>
<path d="M19.3083 7.54539C17.9506 6.08708 16.0503 5.25728 14.0585 5.25C11.9497 5.25583 9.94436 6.15854 8.54027 7.73205C7.19859 9.20059 6.55258 11.1766 6.76694 13.1539C7.02653 17.2781 8.07069 22.7497 14.0585 22.7497C19.8335 22.7497 20.93 17.6164 21.2537 13.1424C21.4199 11.0861 20.7141 9.05476 19.3083 7.54539ZM8.51675 13.0259V12.9851C8.48321 12.6438 8.48321 12.2997 8.51675 11.9584H19.4863C19.5257 12.3098 19.5315 12.6642 19.5067 13.0171C19.4324 14.3442 19.2267 15.6611 18.8943 16.9487C14.5192 15.6274 14.1343 15.6274 14.0003 15.6274C13.8662 15.6274 13.4753 15.6274 9.12643 16.9428C8.77935 15.6638 8.57371 14.3499 8.51103 13.0258L8.51675 13.0259ZM14.0555 6.99995C15.5663 6.99995 17.0086 7.63432 18.0281 8.74994C18.4306 9.18159 18.7631 9.67308 19.011 10.2082H8.97475C9.20079 9.73139 9.49536 9.29097 9.84976 8.89868C10.9202 7.69849 12.4483 7.00869 14.0555 6.99995ZM14.0555 20.9999C12.4834 20.9999 10.8647 20.6207 9.77077 18.5761C11.687 17.9928 13.5422 17.4707 13.9999 17.3832C14.4607 17.4707 16.3332 18.0103 18.2726 18.5907C17.2985 20.4924 15.8405 20.9999 14.0555 20.9999Z" fill="#1A1365"/>
</svg>
