<svg width="31" height="28" viewBox="0 0 31 28" fill="none" xmlns="http://www.w3.org/2000/svg">
<path d="M27.6272 12.7484C26.8623 12.7452 26.1396 13.0917 25.6615 13.6889L21.3227 12.4349V12.1214C21.318 10.5585 20.4824 9.11631 19.128 8.3341L20.2003 5.01399C21.3995 4.96069 22.3917 4.06403 22.5689 2.87739C22.7444 1.68918 22.0547 0.543268 20.9229 0.143533C19.7911 -0.256198 18.5355 0.201533 17.9257 1.23615C17.3175 2.27074 17.5259 3.59222 18.4257 4.387L17.3566 7.75414C17.2155 7.73219 17.0745 7.73219 16.9334 7.73219C16.0038 7.73219 15.0993 8.02847 14.35 8.5787L9.88233 4.63468C10.3118 3.51385 9.88547 2.24571 8.86813 1.60924C7.84919 0.974388 6.52301 1.14996 5.70476 2.0278C4.88647 2.90721 4.80497 4.24121 5.51195 5.21312C6.21736 6.18346 7.51219 6.5189 8.60007 6.01102L13.099 9.98637C12.7416 10.6275 12.552 11.347 12.5441 12.0807L4.51171 13.7517C3.78905 12.7924 2.48952 12.4804 1.40947 13.0071C0.330973 13.5323 -0.223944 14.7487 0.0848562 15.9087C0.395237 17.0687 1.48314 17.8462 2.68078 17.7632C3.87842 17.6801 4.85029 16.7615 4.99765 15.5701L12.9325 13.921C13.1834 14.4728 13.5439 14.9666 13.9922 15.3726L9.69069 23.0037C8.49931 22.8501 7.36752 23.5633 6.98974 24.703C6.61352 25.8426 7.09633 27.0888 8.14191 27.6783C9.18906 28.2661 10.5058 28.031 11.2818 27.1155C12.0593 26.2001 12.0797 24.8629 11.3304 23.9255L15.6223 16.3101C16.0455 16.4449 16.4875 16.5123 16.9327 16.5107C17.102 16.5091 17.2698 16.4997 17.4375 16.4794L19.7356 22.9411C18.7997 23.6935 18.5285 25.0024 19.0882 26.0653C19.6462 27.1265 20.8799 27.6438 22.0289 27.2974C23.1795 26.9525 23.9226 25.8395 23.8019 24.6466C23.6827 23.4521 22.7328 22.51 21.5383 22.3987L19.2151 15.8651C19.8719 15.467 20.4128 14.9026 20.7827 14.2286L25.1344 15.5109C25.2331 16.4968 25.9025 17.3308 26.843 17.6412C27.7836 17.9516 28.8198 17.6804 29.4859 16.9467C30.1522 16.2147 30.3246 15.1582 29.9265 14.2505C29.5283 13.3444 28.6332 12.7566 27.6425 12.7519L27.6272 12.7484Z" fill="#1A1365"/>
</svg>
