<svg width="27" height="28" viewBox="0 0 27 28" fill="none" xmlns="http://www.w3.org/2000/svg">
<path d="M20.4594 25.2502L16.7211 21.5149C16.5682 21.3634 16.4824 21.1576 16.4824 20.9433C16.4824 20.7289 16.5682 20.5232 16.7211 20.3717L17.6099 19.4828C17.7599 19.3285 17.9657 19.2413 18.1815 19.2413C18.3973 19.2413 18.603 19.3285 18.7531 19.4828L21.0394 21.7692L24.3346 18.474C24.4861 18.3211 24.6919 18.2354 24.9062 18.2354C25.1206 18.2354 25.3263 18.3211 25.4778 18.474L26.3667 19.3628C26.5196 19.5143 26.6053 19.7201 26.6053 19.9344C26.6053 20.1488 26.5196 20.3545 26.3667 20.506L21.5909 25.2503C21.4409 25.4018 21.2379 25.4861 21.025 25.4861C20.8121 25.4861 20.6094 25.4017 20.4594 25.2502Z" fill="#1A1365"/>
<path d="M23.0579 5.11881L15.3871 0.689119C13.7952 -0.229706 11.8347 -0.229706 10.243 0.689119L2.57214 5.11881C0.980246 6.03763 0 7.73668 0 9.57447V18.4342C0 20.2719 0.980283 21.9709 2.57214 22.8899L10.243 27.3141C11.0246 27.7642 11.912 28.0014 12.8151 28C13.0638 28 13.3124 27.9828 13.5582 27.9457C13.9526 27.8871 14.2455 27.547 14.2441 27.1483V14.9593L22.772 10.035V14.6304C22.772 15.0719 23.1307 15.4306 23.5723 15.4306H24.8183C25.2598 15.4306 25.6185 15.0719 25.6185 14.6304V9.57479C25.6214 7.73856 24.6455 6.0406 23.0579 5.11881ZM11.6719 3.16395C12.3792 2.75526 13.2509 2.75526 13.9582 3.16395L21.4546 7.49377L12.815 12.4839L4.17552 7.49377L11.6719 3.16395ZM4.00102 20.409C3.29368 20.0003 2.85784 19.2458 2.85784 18.4284V10.0347L11.3858 14.959V24.6758L4.00102 20.409Z" fill="#1A1365"/>
</svg>
