<svg width="143" height="26" viewBox="0 0 143 26" fill="none" xmlns="http://www.w3.org/2000/svg">
<path d="M41.5821 5.99121C40.2682 5.99121 38.7666 6.02922 37.6029 6.14326V8.42394C38.8042 8.34792 40.7562 8.27189 42.4455 8.27189C44.4351 8.27189 45.4862 9.2982 45.4862 11.3128V11.6929H41.8449C38.0909 11.6929 35.9512 13.2894 35.9512 16.4063C35.9512 19.4472 37.9408 21.1578 41.2067 21.1578C43.7219 21.1578 45.2985 20.0174 45.9367 17.8888V20.7776H48.0014V11.5029C47.9638 7.43564 46.0118 5.99121 41.5821 5.99121ZM45.4862 15.342C45.3736 18.1929 43.5342 19.0671 41.7323 19.0671C39.6676 19.0671 38.5039 18.0028 38.5039 16.3683C38.5039 14.7718 39.6676 13.6315 41.7323 13.6315H45.4862V15.342Z" fill="#1A1365"/>
<path d="M63.7679 8.38573C62.6417 6.52318 60.7647 5.68693 58.6625 5.68693C54.4956 5.68693 51.6426 9.06994 51.6426 13.2512V13.7453C51.6426 17.9646 54.6457 21.3096 58.7376 21.3096C61.0275 21.3096 63.2048 20.2833 64.2934 17.8126V20.8155H66.3581V1.84778H63.7679V8.38573ZM63.8805 13.9734C63.8805 17.0523 61.7407 18.9909 59.113 18.9909C56.26 18.9909 54.2328 16.8623 54.2328 13.4793C54.2328 10.1723 56.1849 7.96761 59.0754 7.96761C61.6281 7.96761 63.8805 9.67812 63.8805 12.719V13.9734Z" fill="#1A1365"/>
<path d="M77.3192 5.6488C72.4766 5.6488 70.2617 9.41193 70.2617 13.2131V13.7072C70.2617 17.3943 72.4015 21.2715 77.4693 21.2715C80.8854 21.2715 83.3255 19.4469 83.9637 16.444H81.5236C81.2233 17.8124 79.7217 18.9908 77.4693 18.9908C74.3535 18.9908 72.8895 16.8622 72.7393 13.9733H84.1889V12.7949C84.1889 9.14585 81.9741 5.6488 77.3192 5.6488ZM72.852 11.9967C73.2649 9.60199 74.7289 7.9675 77.3192 7.9675C79.9094 7.9675 81.3359 9.48795 81.6738 11.9967H72.852Z" fill="#1A1365"/>
<path d="M95.0767 5.72522H94.9641C92.2237 5.72522 90.572 7.05562 89.9338 9.56437V6.18136H87.8691V20.8157H90.4594V12.0731C90.4594 9.71641 91.9985 8.15795 94.2884 8.15795C96.4657 8.15795 97.8171 9.64039 97.8171 11.9211V20.8157H100.407V12.4532C100.407 8.08193 98.6805 5.72522 95.0767 5.72522Z" fill="#1A1365"/>
<path d="M108.027 1.73389H105.55V6.18122H103.072V8.15781H105.55V15.8361C105.55 19.7513 107.577 20.9676 110.805 20.9676H113.02V18.6109H110.468C108.928 18.6109 108.027 17.6987 108.027 16.1402V8.15781H112.983V6.18122H108.027V1.73389Z" fill="#1A1365"/>
<path d="M118.764 10.5146V6.14326H116.699V20.7776H119.289V12.8713C119.289 9.9824 120.866 8.34792 123.794 8.34792H124.695V5.99121H124.207C121.016 5.99121 119.214 7.39763 118.764 10.5146Z" fill="#1A1365"/>
<path d="M134.268 5.6488C129.388 5.6488 126.535 9.44994 126.535 13.2131V13.7072C126.535 17.3943 129.238 21.2715 134.268 21.2715C139.299 21.2715 142.001 17.3943 142.001 13.7072V13.2131C142.001 9.44994 139.148 5.6488 134.268 5.6488ZM134.268 18.9148C131.002 18.9148 129.125 16.5201 129.125 13.4791C129.125 10.3622 131.115 8.04352 134.268 8.04352C137.422 8.04352 139.411 10.3622 139.411 13.4791C139.411 16.5201 137.497 18.9148 134.268 18.9148Z" fill="#1A1365"/>
<path d="M25.1192 0H2.86723C1.53297 0 0.5 1.01695 0.5 2.33051V22.6695C0.5 23.9407 1.53297 25 2.86723 25H25.1192C26.4104 25 27.4864 23.9831 27.4864 22.6695V2.33051C27.4864 1.01695 26.4104 0 25.1192 0ZM21.2886 12.7966C21.2025 13.2627 20.9443 13.6017 20.643 13.9407C18.6631 15.9746 16.6833 17.9661 14.7034 19.9576C14.6173 20.0424 14.4882 20.0847 14.3591 20.0847C12.8957 20.0847 11.3893 20.0847 9.92589 20.0847H9.88284C9.4094 20.0847 8.89291 20.0847 8.41947 20.0847H8.37642C7.90298 20.0847 7.42953 20.0847 6.95609 20.0847C6.87 20.0847 6.82696 20.0847 6.69784 20.0847C9.23724 17.5424 11.6905 15 14.1869 12.5C11.6905 9.95763 9.1942 7.45763 6.69784 4.91525C6.82696 4.91525 6.87 4.91525 6.95609 4.91525C8.41947 4.91525 9.88284 4.91525 11.3462 4.91525C11.8197 4.91525 12.2931 4.91525 12.7666 4.91525C13.2831 4.91525 13.7565 4.91525 14.273 4.91525C14.4882 4.91525 14.6173 4.95763 14.7464 5.12712C16.0376 6.44068 17.3719 7.79661 18.6631 9.11017C19.3948 9.87288 20.1265 10.6356 20.8582 11.4407C21.2456 11.7797 21.3747 12.2881 21.2886 12.7966Z" fill="#7775AC"/>
<path d="M25.1192 0H2.86723C1.53297 0 0.5 1.01695 0.5 2.33051V22.6695C0.5 23.9407 1.53297 25 2.86723 25H25.1192C26.4104 25 27.4864 23.9831 27.4864 22.6695V2.33051C27.4864 1.01695 26.4104 0 25.1192 0ZM21.2886 12.7966C21.2025 13.2627 20.9443 13.6017 20.643 13.9407C18.6631 15.9746 16.6833 17.9661 14.7034 19.9576C14.6173 20.0424 14.4882 20.0847 14.3591 20.0847C12.8957 20.0847 11.3893 20.0847 9.92589 20.0847H9.88284C9.4094 20.0847 8.89291 20.0847 8.41947 20.0847H8.37642C7.90298 20.0847 7.42953 20.0847 6.95609 20.0847C6.87 20.0847 6.82696 20.0847 6.69784 20.0847C9.23724 17.5424 11.6905 15 14.1869 12.5C11.6905 9.95763 9.1942 7.45763 6.69784 4.91525C6.82696 4.91525 6.87 4.91525 6.95609 4.91525C8.41947 4.91525 9.88284 4.91525 11.3462 4.91525C11.8197 4.91525 12.2931 4.91525 12.7666 4.91525C13.2831 4.91525 13.7565 4.91525 14.273 4.91525C14.4882 4.91525 14.6173 4.95763 14.7464 5.12712C16.0376 6.44068 17.3719 7.79661 18.6631 9.11017C19.3948 9.87288 20.1265 10.6356 20.8582 11.4407C21.2456 11.7797 21.3747 12.2881 21.2886 12.7966Z" fill="url(#paint0_linear_114_1639)"/>
<defs>
<linearGradient id="paint0_linear_114_1639" x1="0.5" y1="12.5" x2="27.4864" y2="12.5" gradientUnits="userSpaceOnUse">
<stop stop-color="#FDAA5E"/>
<stop offset="1" stop-color="#FF3164"/>
</linearGradient>
</defs>
</svg>
