<svg width="1200" height="1200" viewBox="0 0 1200 1200" fill="none" xmlns="http://www.w3.org/2000/svg">
<rect width="1200" height="1200" fill="#DAFF00"/>
<path fill-rule="evenodd" clip-rule="evenodd" d="M397.831 534.425C397.831 385.539 518.469 265 667.145 265H936.787V534.097C936.787 682.983 816.15 803.522 667.145 803.522C656.714 803.522 646.606 802.871 636.499 801.896V911.033H554.327C554.729 905.285 554.948 899.482 554.948 893.632C554.948 757.654 444.593 647.426 308.468 647.426C302.333 647.431 296.256 647.655 290.236 648.097V564.398H399.463C398.483 554.313 397.831 544.525 397.831 534.425ZM673.173 714.945C775.809 714.945 859.004 631.831 859.004 529.32V343.696H673.173C570.536 343.696 487.342 426.798 487.342 529.32C487.342 631.843 570.536 714.945 673.173 714.945ZM263 841.671C263 790.683 304.383 749.346 355.431 749.346C406.476 749.346 447.859 790.679 447.859 841.671C447.859 892.663 406.476 934 355.431 934H263V841.671Z" fill="#143142"/>
</svg>
