<svg width="348" height="83" viewBox="0 0 348 83" fill="none" xmlns="http://www.w3.org/2000/svg">
<rect width="89" height="83" rx="12" fill="#DAFF00"/>
<path fill-rule="evenodd" clip-rule="evenodd" d="M31.0366 37.057C31.0366 27.0786 39.1218 19 49.0862 19H67.1578V37.0351C67.1578 47.0135 59.0726 55.0921 49.0862 55.0921C48.3871 55.0921 47.7097 55.0485 47.0323 54.9831V62.2975H41.5251C41.552 61.9123 41.5667 61.5234 41.5667 61.1313C41.5667 52.018 34.1706 44.6304 25.0474 44.6304C24.6363 44.6308 24.229 44.6458 23.8255 44.6754V39.0658H31.1459C31.0803 38.39 31.0366 37.734 31.0366 37.057ZM49.4902 49.1556C56.3689 49.1556 61.9447 43.5853 61.9447 36.7149V24.2742H49.4902C42.6114 24.2742 37.0357 29.8438 37.0357 36.7149C37.0357 43.586 42.6114 49.1556 49.4902 49.1556ZM22 57.6487C22 54.2314 24.7735 51.461 28.1948 51.461C31.6159 51.461 34.3894 54.2312 34.3894 57.6487C34.3894 61.0662 31.6159 63.8367 28.1948 63.8367H22V57.6487Z" fill="#143142"/>
<path d="M123.064 61.54C120.868 61.54 118.852 61.27 117.016 60.73C115.18 60.154 113.524 59.308 112.048 58.192C110.572 57.076 109.258 55.726 108.106 54.142L112.696 48.958C114.46 51.406 116.188 53.098 117.88 54.034C119.572 54.97 121.48 55.438 123.604 55.438C124.828 55.438 125.944 55.258 126.952 54.898C127.96 54.502 128.752 53.98 129.328 53.332C129.904 52.648 130.192 51.874 130.192 51.01C130.192 50.398 130.066 49.84 129.814 49.336C129.598 48.796 129.256 48.328 128.788 47.932C128.32 47.5 127.744 47.104 127.06 46.744C126.376 46.384 125.602 46.078 124.738 45.826C123.874 45.574 122.92 45.34 121.876 45.124C119.896 44.728 118.168 44.206 116.692 43.558C115.216 42.874 113.974 42.046 112.966 41.074C111.958 40.066 111.22 38.95 110.752 37.726C110.284 36.466 110.05 35.044 110.05 33.46C110.05 31.876 110.392 30.418 111.076 29.086C111.796 27.754 112.768 26.602 113.992 25.63C115.216 24.658 116.638 23.902 118.258 23.362C119.878 22.822 121.624 22.552 123.496 22.552C125.62 22.552 127.51 22.804 129.166 23.308C130.858 23.812 132.334 24.568 133.594 25.576C134.89 26.548 135.952 27.736 136.78 29.14L132.136 33.73C131.416 32.614 130.606 31.696 129.706 30.976C128.806 30.22 127.834 29.662 126.79 29.302C125.746 28.906 124.648 28.708 123.496 28.708C122.2 28.708 121.066 28.888 120.094 29.248C119.158 29.608 118.42 30.13 117.88 30.814C117.34 31.462 117.07 32.254 117.07 33.19C117.07 33.91 117.232 34.558 117.556 35.134C117.88 35.674 118.33 36.16 118.906 36.592C119.518 37.024 120.292 37.402 121.228 37.726C122.164 38.05 123.226 38.338 124.414 38.59C126.394 38.986 128.176 39.526 129.76 40.21C131.344 40.858 132.694 41.65 133.81 42.586C134.926 43.486 135.772 44.53 136.348 45.718C136.924 46.87 137.212 48.166 137.212 49.606C137.212 52.09 136.618 54.232 135.43 56.032C134.278 57.796 132.64 59.164 130.516 60.136C128.392 61.072 125.908 61.54 123.064 61.54ZM143.743 72.88V32.542H150.277L150.385 39.022L149.251 38.536C149.467 37.42 150.079 36.376 151.087 35.404C152.095 34.396 153.319 33.586 154.759 32.974C156.235 32.362 157.765 32.056 159.349 32.056C161.869 32.056 164.101 32.686 166.045 33.946C168.025 35.206 169.573 36.934 170.689 39.13C171.841 41.326 172.417 43.864 172.417 46.744C172.417 49.588 171.841 52.126 170.689 54.358C169.573 56.554 168.025 58.3 166.045 59.596C164.101 60.856 161.905 61.486 159.457 61.486C157.801 61.486 156.199 61.162 154.651 60.514C153.139 59.866 151.843 59.02 150.763 57.976C149.719 56.932 149.071 55.834 148.819 54.682L150.439 53.926V72.88H143.743ZM158.107 55.6C159.619 55.6 160.969 55.222 162.157 54.466C163.345 53.71 164.263 52.666 164.911 51.334C165.595 50.002 165.937 48.472 165.937 46.744C165.937 45.016 165.613 43.504 164.965 42.208C164.317 40.876 163.399 39.832 162.211 39.076C161.023 38.32 159.655 37.942 158.107 37.942C156.523 37.942 155.137 38.32 153.949 39.076C152.797 39.796 151.879 40.822 151.195 42.154C150.511 43.486 150.169 45.016 150.169 46.744C150.169 48.472 150.511 50.002 151.195 51.334C151.879 52.666 152.797 53.71 153.949 54.466C155.137 55.222 156.523 55.6 158.107 55.6ZM191.675 61.54C188.687 61.54 186.041 60.91 183.737 59.65C181.469 58.39 179.687 56.68 178.391 54.52C177.131 52.324 176.501 49.822 176.501 47.014C176.501 44.782 176.861 42.748 177.581 40.912C178.301 39.076 179.291 37.492 180.551 36.16C181.847 34.792 183.377 33.748 185.141 33.028C186.941 32.272 188.903 31.894 191.027 31.894C192.899 31.894 194.645 32.254 196.265 32.974C197.885 33.694 199.289 34.684 200.477 35.944C201.665 37.168 202.565 38.644 203.177 40.372C203.825 42.064 204.131 43.918 204.095 45.934L204.041 48.256H180.983L179.741 43.72H198.479L197.615 44.638V43.45C197.507 42.334 197.147 41.362 196.535 40.534C195.923 39.67 195.131 39.004 194.159 38.536C193.223 38.032 192.179 37.78 191.027 37.78C189.263 37.78 187.769 38.122 186.545 38.806C185.357 39.49 184.457 40.48 183.845 41.776C183.233 43.036 182.927 44.62 182.927 46.528C182.927 48.364 183.305 49.966 184.061 51.334C184.853 52.702 185.951 53.764 187.355 54.52C188.795 55.24 190.469 55.6 192.377 55.6C193.709 55.6 194.933 55.384 196.049 54.952C197.165 54.52 198.371 53.746 199.667 52.63L202.961 57.22C201.989 58.12 200.873 58.894 199.613 59.542C198.389 60.154 197.093 60.64 195.725 61C194.357 61.36 193.007 61.54 191.675 61.54ZM223.316 61.54C220.328 61.54 217.682 60.91 215.378 59.65C213.11 58.39 211.328 56.68 210.032 54.52C208.772 52.324 208.142 49.822 208.142 47.014C208.142 44.782 208.502 42.748 209.222 40.912C209.942 39.076 210.932 37.492 212.192 36.16C213.488 34.792 215.018 33.748 216.782 33.028C218.582 32.272 220.544 31.894 222.668 31.894C224.54 31.894 226.286 32.254 227.906 32.974C229.526 33.694 230.93 34.684 232.118 35.944C233.306 37.168 234.206 38.644 234.818 40.372C235.466 42.064 235.772 43.918 235.736 45.934L235.682 48.256H212.624L211.382 43.72H230.12L229.256 44.638V43.45C229.148 42.334 228.788 41.362 228.176 40.534C227.564 39.67 226.772 39.004 225.8 38.536C224.864 38.032 223.82 37.78 222.668 37.78C220.904 37.78 219.41 38.122 218.186 38.806C216.998 39.49 216.098 40.48 215.486 41.776C214.874 43.036 214.568 44.62 214.568 46.528C214.568 48.364 214.946 49.966 215.702 51.334C216.494 52.702 217.592 53.764 218.996 54.52C220.436 55.24 222.11 55.6 224.018 55.6C225.35 55.6 226.574 55.384 227.69 54.952C228.806 54.52 230.012 53.746 231.308 52.63L234.602 57.22C233.63 58.12 232.514 58.894 231.254 59.542C230.03 60.154 228.734 60.64 227.366 61C225.998 61.36 224.648 61.54 223.316 61.54ZM253.066 61.54C250.546 61.54 248.278 60.91 246.262 59.65C244.282 58.354 242.698 56.608 241.51 54.412C240.358 52.18 239.782 49.624 239.782 46.744C239.782 43.9 240.358 41.362 241.51 39.13C242.662 36.898 244.228 35.152 246.208 33.892C248.224 32.596 250.492 31.948 253.012 31.948C254.38 31.948 255.694 32.164 256.954 32.596C258.25 33.028 259.402 33.622 260.41 34.378C261.418 35.098 262.21 35.908 262.786 36.808C263.398 37.708 263.74 38.644 263.812 39.616L262.03 39.832V21.04H268.672V61H262.246L262.084 54.304L263.38 54.412C263.344 55.312 263.02 56.176 262.408 57.004C261.832 57.832 261.076 58.588 260.14 59.272C259.204 59.956 258.106 60.514 256.846 60.946C255.622 61.342 254.362 61.54 253.066 61.54ZM254.362 55.924C255.91 55.924 257.278 55.528 258.466 54.736C259.654 53.944 260.572 52.864 261.22 51.496C261.904 50.128 262.246 48.544 262.246 46.744C262.246 44.98 261.904 43.414 261.22 42.046C260.572 40.642 259.654 39.562 258.466 38.806C257.278 38.014 255.91 37.618 254.362 37.618C252.814 37.618 251.446 38.014 250.258 38.806C249.07 39.562 248.134 40.642 247.45 42.046C246.802 43.414 246.478 44.98 246.478 46.744C246.478 48.544 246.802 50.128 247.45 51.496C248.134 52.864 249.07 53.944 250.258 54.736C251.446 55.528 252.814 55.924 254.362 55.924ZM292.52 61.324C289.532 61.324 286.868 60.694 284.528 59.434C282.188 58.138 280.334 56.374 278.966 54.142C277.634 51.874 276.968 49.318 276.968 46.474V23.146H284.042V45.988C284.042 47.68 284.42 49.192 285.176 50.524C285.968 51.82 287.012 52.864 288.308 53.656C289.604 54.448 291.008 54.844 292.52 54.844C294.176 54.844 295.67 54.448 297.002 53.656C298.334 52.864 299.378 51.82 300.134 50.524C300.926 49.192 301.322 47.68 301.322 45.988V23.146H308.126V46.474C308.126 49.318 307.442 51.874 306.074 54.142C304.742 56.374 302.906 58.138 300.566 59.434C298.226 60.694 295.544 61.324 292.52 61.324ZM316.659 72.88V32.542H323.193L323.301 39.022L322.167 38.536C322.383 37.42 322.995 36.376 324.003 35.404C325.011 34.396 326.235 33.586 327.675 32.974C329.151 32.362 330.681 32.056 332.265 32.056C334.785 32.056 337.017 32.686 338.961 33.946C340.941 35.206 342.489 36.934 343.605 39.13C344.757 41.326 345.333 43.864 345.333 46.744C345.333 49.588 344.757 52.126 343.605 54.358C342.489 56.554 340.941 58.3 338.961 59.596C337.017 60.856 334.821 61.486 332.373 61.486C330.717 61.486 329.115 61.162 327.567 60.514C326.055 59.866 324.759 59.02 323.679 57.976C322.635 56.932 321.987 55.834 321.735 54.682L323.355 53.926V72.88H316.659ZM331.023 55.6C332.535 55.6 333.885 55.222 335.073 54.466C336.261 53.71 337.179 52.666 337.827 51.334C338.511 50.002 338.853 48.472 338.853 46.744C338.853 45.016 338.529 43.504 337.881 42.208C337.233 40.876 336.315 39.832 335.127 39.076C333.939 38.32 332.571 37.942 331.023 37.942C329.439 37.942 328.053 38.32 326.865 39.076C325.713 39.796 324.795 40.822 324.111 42.154C323.427 43.486 323.085 45.016 323.085 46.744C323.085 48.472 323.427 50.002 324.111 51.334C324.795 52.666 325.713 53.71 326.865 54.466C328.053 55.222 329.439 55.6 331.023 55.6Z" fill="#143142"/>
</svg>
