<svg width="208" height="80" viewBox="0 0 208 80" fill="none" xmlns="http://www.w3.org/2000/svg">
<path d="M33.3382 56.771L33.3008 28.2627L39.8883 28.2541L52.7999 45.7494C52.6619 44.555 52.5377 43.4419 52.4272 42.4103C52.344 41.3516 52.288 40.2249 52.2591 39.0303C52.2303 37.8357 52.2148 36.451 52.2128 34.8763L52.2041 28.2379L59.3644 28.2285L59.4018 56.7368L52.7324 56.7456L39.985 39.6166C40.123 40.811 40.2198 41.8155 40.2754 42.6299C40.3583 43.4443 40.4139 44.2316 40.4422 44.9918C40.4704 45.752 40.4852 46.6344 40.4865 47.639L40.4985 56.7616L33.3382 56.771Z" fill="#151E21"/>
<path d="M187.216 56.886L186.924 28.3792L207.217 28.1714L207.28 34.3207L194.106 34.4556L194.156 39.3832L205.571 39.2663L205.631 45.1306L194.216 45.2475L194.272 50.6638L207.937 50.5238L208 56.6732L187.216 56.886Z" fill="#151E21"/>
<path d="M149.61 56.7293L149.711 28.2211L156.217 28.2441L164.231 41.264L172.419 28.3012L178.679 28.3233L178.579 56.8314L171.419 56.8061L171.448 48.3759C171.454 46.8555 171.486 45.4301 171.545 44.1C171.604 42.7698 171.691 41.494 171.804 40.2726L165.387 50.065L162.686 50.0555L156.542 40.341C156.647 41.4817 156.711 42.7037 156.734 44.007C156.784 45.3104 156.806 46.7495 156.8 48.3242L156.771 56.7545L149.61 56.7293Z" fill="#151E21"/>
<path d="M12.3552 57.023C9.9551 56.9863 7.83497 56.4787 5.99484 55.5002C4.15513 54.4946 2.71629 53.142 1.67832 51.4426C0.640353 49.7432 0.137968 47.8076 0.171167 45.6358L0.439453 28.0849L7.84442 28.198L7.58173 45.3825C7.55891 46.8756 8.01733 48.1181 8.95699 49.11C9.89665 50.1019 11.062 50.6085 12.453 50.6298C13.8985 50.6519 15.1197 50.1818 16.1165 49.2195C17.1133 48.2572 17.6231 47.0294 17.6459 45.5363L17.9086 28.3519L25.1499 28.4626L24.8817 46.0135C24.8485 48.1853 24.2871 50.1047 23.1977 51.7716C22.1083 53.4384 20.6152 54.7462 18.7183 55.6947C16.8491 56.6165 14.7281 57.0593 12.3552 57.023Z" fill="#151E21"/>
<path d="M96.571 55.6743L98.5952 27.2379L105.942 27.7609L104.371 49.8194L115.712 50.6267L115.258 57.0045L96.571 55.6743Z" fill="#151E21"/>
<path d="M121.46 57.1223L121.33 28.5755L128.49 28.5428L128.621 57.0896L121.46 57.1223Z" fill="#151E21"/>
<path d="M80.0938 56.7402L80.4941 28.1959L87.6542 28.2963L87.2539 56.8406L80.0938 56.7402Z" fill="#151E21"/>
<path fill-rule="evenodd" clip-rule="evenodd" d="M65.7798 39.619C65.7798 17.738 83.5374 -3.05176e-05 105.442 -3.05176e-05C127.361 -3.05176e-05 145.105 17.8744 145.105 39.7424C145.105 61.7471 127.25 79.7332 105.195 79.7332H65.7798V39.619ZM105.442 5.94282C86.8232 5.94282 71.7292 21.0202 71.7292 39.619V73.7904H105.195C123.938 73.7904 139.156 58.491 139.156 39.7424C139.156 21.1305 124.049 5.94282 105.442 5.94282Z" fill="#BFEE00"/>
</svg>
